<svg width="107" height="40" viewBox="0 0 107 40" fill="none" xmlns="http://www.w3.org/2000/svg">
<path d="M31.816 25.5371L31.036 31.9571H25.516V39.6371H17.656V31.9571H1.03602L0.0160157 25.5371L19.696 1.23707H25.516V25.5371H31.816ZM17.656 13.7171L8.41602 25.5371H17.656V13.7171ZM35.6902 18.3971C35.6902 14.9571 36.4102 11.9171 37.8502 9.27707C39.2902 6.63707 41.2702 4.55707 43.7902 3.03707C46.3102 1.51707 49.1902 0.757067 52.4302 0.757067C55.6702 0.757067 58.5302 1.51707 61.0102 3.03707C63.5302 4.55707 65.4902 6.63707 66.8902 9.27707C68.3302 11.8771 69.0502 14.8771 69.0502 18.2771C69.0502 21.7571 68.3302 24.8571 66.8902 27.5771C65.4502 30.2571 63.4702 32.3771 60.9502 33.9371C58.4702 35.4971 55.6102 36.2771 52.3702 36.2771C49.1702 36.2771 46.3102 35.5171 43.7902 33.9971C41.2702 32.4371 39.2902 30.3171 37.8502 27.6371C36.4102 24.9171 35.6902 21.8371 35.6902 18.3971ZM42.8302 18.2171C42.8302 20.4171 43.2302 22.3771 44.0302 24.0971C44.8702 25.8171 46.0102 27.1771 47.4502 28.1771C48.9302 29.1371 50.5902 29.6171 52.4302 29.6171C54.3102 29.6171 55.9702 29.1371 57.4102 28.1771C58.8502 27.2171 59.9702 25.8971 60.7702 24.2171C61.6102 22.5371 62.0302 20.6371 62.0302 18.5171C62.0302 16.3571 61.6102 14.4371 60.7702 12.7571C59.9302 11.0771 58.7902 9.75707 57.3502 8.79707C55.9102 7.83707 54.2502 7.35707 52.3702 7.35707C50.5302 7.35707 48.8902 7.83707 47.4502 8.79707C46.0102 9.71707 44.8702 10.9971 44.0302 12.6371C43.2302 14.2371 42.8302 16.0971 42.8302 18.2171ZM73.277 18.3971C73.277 14.9571 73.997 11.9171 75.437 9.27707C76.877 6.63707 78.857 4.55707 81.377 3.03707C83.897 1.51707 86.777 0.757067 90.017 0.757067C93.257 0.757067 96.117 1.51707 98.597 3.03707C101.117 4.55707 103.077 6.63707 104.477 9.27707C105.917 11.8771 106.637 14.8771 106.637 18.2771C106.637 21.7571 105.917 24.8571 104.477 27.5771C103.037 30.2571 101.057 32.3771 98.537 33.9371C96.057 35.4971 93.197 36.2771 89.957 36.2771C86.757 36.2771 83.897 35.5171 81.377 33.9971C78.857 32.4371 76.877 30.3171 75.437 27.6371C73.997 24.9171 73.277 21.8371 73.277 18.3971ZM80.417 18.2171C80.417 20.4171 80.817 22.3771 81.617 24.0971C82.457 25.8171 83.597 27.1771 85.037 28.1771C86.517 29.1371 88.177 29.6171 90.017 29.6171C91.897 29.6171 93.557 29.1371 94.997 28.1771C96.437 27.2171 97.557 25.8971 98.357 24.2171C99.197 22.5371 99.617 20.6371 99.617 18.5171C99.617 16.3571 99.197 14.4371 98.357 12.7571C97.517 11.0771 96.377 9.75707 94.937 8.79707C93.497 7.83707 91.837 7.35707 89.957 7.35707C88.117 7.35707 86.477 7.83707 85.037 8.79707C83.597 9.71707 82.457 10.9971 81.617 12.6371C80.817 14.2371 80.417 16.0971 80.417 18.2171Z" fill="url(#paint0_linear_1755_1877)"/>
<defs>
<linearGradient id="paint0_linear_1755_1877" x1="53.916" y1="-17.5029" x2="53.916" y2="54.4971" gradientUnits="userSpaceOnUse">
<stop stop-color="#F00000"/>
<stop offset="1" stop-color="#9109F7"/>
</linearGradient>
</defs>
</svg>
