<svg width="93" height="48" viewBox="0 0 93 48" fill="none" xmlns="http://www.w3.org/2000/svg">
<path d="M9.85305 30.1371H2.95305L4.03305 8.53707H25.993L25.153 14.8371H10.633L10.273 21.9771C10.913 21.6571 11.613 21.4371 12.373 21.3171C13.133 21.1571 13.913 21.0771 14.713 21.0771C17.713 21.0771 20.193 21.6571 22.153 22.8171C24.113 23.9771 25.593 25.5171 26.593 27.4371C27.593 29.3571 28.093 31.4371 28.093 33.6771C28.093 36.2771 27.493 38.5971 26.293 40.6371C25.093 42.6371 23.393 44.1971 21.193 45.3171C18.993 46.4771 16.373 47.0571 13.333 47.0571C11.093 47.0571 8.81305 46.6771 6.49305 45.9171C4.17305 45.1571 2.13305 44.2971 0.373047 43.3371L4.21305 37.8771C5.81305 38.7571 7.31305 39.4171 8.71305 39.8571C10.113 40.2971 11.713 40.5171 13.513 40.5171C15.633 40.5171 17.413 39.9171 18.853 38.7171C20.293 37.4771 21.013 35.7971 21.013 33.6771C21.013 31.7171 20.433 30.1771 19.273 29.0571C18.153 27.8971 16.733 27.3171 15.013 27.3171C13.613 27.3171 12.473 27.6371 11.593 28.2771C10.713 28.8771 10.133 29.4971 9.85305 30.1371ZM44.6962 7.75707C47.4962 7.75707 49.8162 8.23707 51.6562 9.19707C53.5362 10.1571 54.9362 11.4371 55.8562 13.0371C56.8162 14.5971 57.2962 16.3171 57.2962 18.1971C57.2962 19.3971 57.0562 20.5371 56.5762 21.6171C56.0962 22.6971 55.4762 23.6371 54.7162 24.4371C53.9962 25.1971 53.2362 25.7571 52.4362 26.1171C53.1962 26.2771 53.9962 26.7771 54.8362 27.6171C55.7162 28.4171 56.4562 29.4771 57.0562 30.7971C57.6962 32.0771 58.0162 33.5571 58.0162 35.2371C58.0162 37.4371 57.4362 39.4371 56.2762 41.2371C55.1162 43.0371 53.4762 44.4571 51.3562 45.4971C49.2362 46.5371 46.7362 47.0571 43.8562 47.0571C41.6562 47.0571 39.3762 46.6571 37.0162 45.8571C34.6962 45.0971 32.6162 44.2371 30.7762 43.2771L34.7362 38.0571C36.3362 39.0171 37.8362 39.7171 39.2362 40.1571C40.6362 40.5571 42.2162 40.7571 43.9762 40.7571C45.1762 40.7571 46.2962 40.5371 47.3362 40.0971C48.3762 39.6571 49.2162 39.0371 49.8562 38.2371C50.5362 37.3971 50.8762 36.4171 50.8762 35.2971C50.8762 33.4571 50.1562 31.9971 48.7162 30.9171C47.3162 29.8371 45.0362 29.2971 41.8762 29.2971H39.3562L38.2762 23.2371H42.2362C44.6762 23.2371 46.5962 22.7971 47.9962 21.9171C49.4362 20.9971 50.1562 19.7971 50.1562 18.3171C50.1562 17.1571 49.6362 16.1571 48.5962 15.3171C47.5962 14.4771 46.2362 14.0571 44.5162 14.0571C42.7162 14.0571 41.0362 14.3971 39.4762 15.0771C37.9562 15.7171 36.6562 16.4171 35.5762 17.1771L31.9162 11.9571C33.8762 10.6771 35.8962 9.65707 37.9762 8.89707C40.0562 8.13707 42.2962 7.75707 44.6962 7.75707ZM72.6787 42.4971H64.9387V0.797067L72.6787 0.137069V24.0171L85.1587 12.5571L89.5387 18.0771L81.3787 25.2171L92.0587 42.4971H83.1187L75.7987 30.1971L72.6787 32.9571V42.4971Z" fill="url(#paint0_linear_1755_1874)"/>
<defs>
<linearGradient id="paint0_linear_1755_1874" x1="45.873" y1="-10.5029" x2="45.873" y2="61.4971" gradientUnits="userSpaceOnUse">
<stop stop-color="#F00000"/>
<stop offset="1" stop-color="#9109F7"/>
</linearGradient>
</defs>
</svg>
