<svg width="144" height="64" viewBox="0 0 144 64" fill="none" xmlns="http://www.w3.org/2000/svg">
<rect x="0.959961" y="0.970215" width="143" height="62.9471" rx="10" fill="#D22238"/>
<path d="M31.9221 36.9438C32.9221 36.9338 33.7671 36.7138 34.4571 36.2838C35.1471 35.8538 35.6721 35.2538 36.0321 34.4838C36.3921 33.7038 36.5721 32.8038 36.5721 31.7838C36.5721 30.8138 36.4021 29.9538 36.0621 29.2038C35.7321 28.4438 35.2271 27.8438 34.5471 27.4038C33.8771 26.9638 33.0121 26.7438 31.9521 26.7438H28.1871V36.9438H31.9221ZM32.0121 28.1688C32.6621 28.1688 33.1921 28.3188 33.6021 28.6188C34.0221 28.9188 34.3321 29.3388 34.5321 29.8788C34.7321 30.4188 34.8321 31.0588 34.8321 31.7988C34.8321 32.6488 34.7071 33.3488 34.4571 33.8988C34.2171 34.4488 33.8771 34.8588 33.4371 35.1288C33.0071 35.3988 32.4921 35.5338 31.8921 35.5338H29.8521V28.1688H32.0121ZM40.0006 36.9438V29.6688H38.3056V36.9438H40.0006ZM39.1306 28.4988C39.4106 28.4988 39.6456 28.4038 39.8356 28.2138C40.0356 28.0138 40.1356 27.7738 40.1356 27.4938C40.1356 27.2138 40.0356 26.9788 39.8356 26.7888C39.6356 26.5988 39.4006 26.5038 39.1306 26.5038C38.8506 26.5038 38.6156 26.5988 38.4256 26.7888C38.2456 26.9788 38.1556 27.2138 38.1556 27.4938C38.1556 27.7838 38.2456 28.0238 38.4256 28.2138C38.6156 28.4038 38.8506 28.4988 39.1306 28.4988ZM41.6137 36.4338C41.8337 36.5838 42.0937 36.7138 42.3937 36.8238C42.6937 36.9338 42.9987 37.0138 43.3087 37.0638C43.6187 37.1138 43.8737 37.1388 44.0737 37.1388C45.0437 37.1388 45.7837 36.9438 46.2937 36.5538C46.8037 36.1538 47.0587 35.6088 47.0587 34.9188C47.0587 34.4988 46.9337 34.1388 46.6837 33.8388C46.4437 33.5288 46.1337 33.2638 45.7537 33.0438C45.3837 32.8138 44.9987 32.6338 44.5987 32.5038C44.2487 32.3838 43.9387 32.2538 43.6687 32.1138C43.4087 31.9738 43.2787 31.8088 43.2787 31.6188C43.2787 31.3988 43.3787 31.2138 43.5787 31.0638C43.7887 30.9138 44.0487 30.8388 44.3587 30.8388C44.7287 30.8388 45.0637 30.8888 45.3637 30.9888C45.6637 31.0788 45.9687 31.1988 46.2787 31.3488L46.8037 30.1938C46.5837 30.0338 46.3237 29.9038 46.0237 29.8038C45.7237 29.6938 45.4287 29.6138 45.1387 29.5638C44.8487 29.5038 44.5987 29.4738 44.3887 29.4738C43.5187 29.4738 42.8337 29.6688 42.3337 30.0588C41.8337 30.4388 41.5837 30.9688 41.5837 31.6488C41.5837 32.0388 41.7037 32.3788 41.9437 32.6688C42.1937 32.9488 42.5037 33.1838 42.8737 33.3738C43.2437 33.5638 43.6187 33.7288 43.9987 33.8688C44.2987 33.9488 44.5537 34.0488 44.7637 34.1688C44.9737 34.2788 45.1387 34.4038 45.2587 34.5438C45.3787 34.6738 45.4387 34.8188 45.4387 34.9788C45.4387 35.1388 45.3737 35.2788 45.2437 35.3988C45.1137 35.5188 44.9437 35.6088 44.7337 35.6688C44.5237 35.7288 44.2987 35.7588 44.0587 35.7588C43.8487 35.7588 43.6387 35.7388 43.4287 35.6988C43.2187 35.6588 43.0037 35.6038 42.7837 35.5338C42.5637 35.4538 42.3437 35.3688 42.1237 35.2788L41.6137 36.4338ZM53.9269 35.2038C53.5969 35.3538 53.2769 35.4738 52.9669 35.5638C52.6669 35.6438 52.3269 35.6838 51.9469 35.6838C51.5369 35.6838 51.1769 35.5838 50.8669 35.3838C50.5569 35.1738 50.3219 34.8888 50.1619 34.5288C50.0019 34.1688 49.9219 33.7588 49.9219 33.2988C49.9319 32.8488 50.0169 32.4438 50.1769 32.0838C50.3469 31.7238 50.5869 31.4388 50.8969 31.2288C51.2069 31.0188 51.5619 30.9138 51.9619 30.9138C52.3419 30.9138 52.6869 30.9638 52.9969 31.0638C53.3069 31.1538 53.6269 31.2688 53.9569 31.4088L54.4519 30.2088C54.2219 30.0488 53.9469 29.9138 53.6269 29.8038C53.3169 29.6938 53.0119 29.6138 52.7119 29.5638C52.4119 29.5038 52.1619 29.4738 51.9619 29.4738C51.2019 29.4738 50.5369 29.6338 49.9669 29.9538C49.4069 30.2738 48.9719 30.7238 48.6619 31.3038C48.3519 31.8738 48.1969 32.5438 48.1969 33.3138C48.1969 34.0738 48.3469 34.7438 48.6469 35.3238C48.9569 35.8938 49.3919 36.3388 49.9519 36.6588C50.5119 36.9788 51.1719 37.1388 51.9319 37.1388C52.1419 37.1388 52.3969 37.1088 52.6969 37.0488C52.9969 36.9988 53.3069 36.9188 53.6269 36.8088C53.9469 36.6988 54.2119 36.5688 54.4219 36.4188L53.9269 35.2038ZM59.2485 37.1388C58.4785 37.1388 57.8135 36.9788 57.2535 36.6588C56.6935 36.3388 56.2635 35.8938 55.9635 35.3238C55.6635 34.7438 55.5135 34.0738 55.5135 33.3138C55.5135 32.5338 55.6685 31.8588 55.9785 31.2888C56.2885 30.7188 56.7235 30.2738 57.2835 29.9538C57.8535 29.6338 58.5185 29.4738 59.2785 29.4738C60.0485 29.4738 60.7085 29.6338 61.2585 29.9538C61.8185 30.2738 62.2535 30.7188 62.5635 31.2888C62.8735 31.8588 63.0285 32.5288 63.0285 33.2988C63.0285 34.0588 62.8685 34.7288 62.5485 35.3088C62.2385 35.8888 61.8035 36.3388 61.2435 36.6588C60.6835 36.9688 60.0185 37.1288 59.2485 37.1388ZM59.2635 35.6838C59.6835 35.6838 60.0435 35.5788 60.3435 35.3688C60.6435 35.1588 60.8735 34.8738 61.0335 34.5138C61.2035 34.1538 61.2885 33.7488 61.2885 33.2988C61.2885 32.8388 61.2085 32.4288 61.0485 32.0688C60.8885 31.7088 60.6585 31.4288 60.3585 31.2288C60.0585 31.0188 59.6985 30.9138 59.2785 30.9138C58.8785 30.9138 58.5235 31.0188 58.2135 31.2288C57.9035 31.4388 57.6635 31.7238 57.4935 32.0838C57.3335 32.4438 57.2485 32.8488 57.2385 33.2988C57.2385 33.7588 57.3185 34.1688 57.4785 34.5288C57.6385 34.8888 57.8735 35.1738 58.1835 35.3838C58.4935 35.5838 58.8535 35.6838 59.2635 35.6838ZM68.0784 36.9438L70.8834 29.6688H69.1134L67.3734 34.5138L65.5134 29.3988L63.8784 29.9388L66.5784 36.9438H68.0784ZM78.568 33.7488V33.3888C78.568 32.6788 78.453 32.0288 78.223 31.4388C78.003 30.8488 77.653 30.3738 77.173 30.0138C76.693 29.6538 76.078 29.4738 75.328 29.4738C74.588 29.4738 73.948 29.6338 73.408 29.9538C72.878 30.2738 72.468 30.7238 72.178 31.3038C71.898 31.8738 71.758 32.5438 71.758 33.3138C71.758 34.0738 71.908 34.7438 72.208 35.3238C72.508 35.8938 72.963 36.3388 73.573 36.6588C74.183 36.9688 74.933 37.1238 75.823 37.1238C76.203 37.1238 76.553 37.0888 76.873 37.0188C77.193 36.9488 77.488 36.8488 77.758 36.7188C78.028 36.5788 78.278 36.4338 78.508 36.2838L77.998 35.0538C77.638 35.2438 77.293 35.3988 76.963 35.5188C76.643 35.6388 76.273 35.6988 75.853 35.6988C75.333 35.6988 74.908 35.6188 74.578 35.4588C74.258 35.2888 74.013 35.0588 73.843 34.7688C73.683 34.4788 73.578 34.1388 73.528 33.7488H78.568ZM73.558 32.6088C73.608 32.2488 73.703 31.9438 73.843 31.6938C73.993 31.4438 74.188 31.2538 74.428 31.1238C74.678 30.9838 74.958 30.9138 75.268 30.9138C75.588 30.9138 75.858 30.9838 76.078 31.1238C76.308 31.2538 76.493 31.4438 76.633 31.6938C76.783 31.9438 76.888 32.2488 76.948 32.6088H73.558ZM81.8198 36.9438V32.3088C82.0798 32.0688 82.3598 31.8538 82.6598 31.6638C82.9698 31.4738 83.2748 31.3188 83.5748 31.1988C83.8848 31.0788 84.1598 31.0188 84.3998 31.0188L84.0398 29.6688C83.7798 29.6688 83.4948 29.7338 83.1848 29.8638C82.8848 29.9938 82.5948 30.1538 82.3148 30.3438C82.0348 30.5238 81.7948 30.6988 81.5948 30.8688L81.0398 29.6688H80.1398V36.9438H81.8198ZM91.5413 36.9438V29.7138L92.0363 30.4638L96.5663 36.9438H98.1863V26.7438H96.4763V33.9288L95.8013 32.9088L91.4663 26.7438H89.8763V36.9438H91.5413ZM103.939 37.1388C103.169 37.1388 102.504 36.9788 101.944 36.6588C101.384 36.3388 100.954 35.8938 100.654 35.3238C100.354 34.7438 100.204 34.0738 100.204 33.3138C100.204 32.5338 100.359 31.8588 100.669 31.2888C100.979 30.7188 101.414 30.2738 101.974 29.9538C102.544 29.6338 103.209 29.4738 103.969 29.4738C104.739 29.4738 105.399 29.6338 105.949 29.9538C106.509 30.2738 106.944 30.7188 107.254 31.2888C107.564 31.8588 107.719 32.5288 107.719 33.2988C107.719 34.0588 107.559 34.7288 107.239 35.3088C106.929 35.8888 106.494 36.3388 105.934 36.6588C105.374 36.9688 104.709 37.1288 103.939 37.1388ZM103.954 35.6838C104.374 35.6838 104.734 35.5788 105.034 35.3688C105.334 35.1588 105.564 34.8738 105.724 34.5138C105.894 34.1538 105.979 33.7488 105.979 33.2988C105.979 32.8388 105.899 32.4288 105.739 32.0688C105.579 31.7088 105.349 31.4288 105.049 31.2288C104.749 31.0188 104.389 30.9138 103.969 30.9138C103.569 30.9138 103.214 31.0188 102.904 31.2288C102.594 31.4388 102.354 31.7238 102.184 32.0838C102.024 32.4438 101.939 32.8488 101.929 33.2988C101.929 33.7588 102.009 34.1688 102.169 34.5288C102.329 34.8888 102.564 35.1738 102.874 35.3838C103.184 35.5838 103.544 35.6838 103.954 35.6838ZM116.609 36.9438L118.904 29.6688H117.149L115.919 34.3638L114.599 29.6688H112.769L111.539 34.3638L110.219 29.3988L108.569 29.9538L110.759 36.9438H112.229L113.654 32.1288L115.154 36.9438H116.609Z" fill="white"/>
</svg>
