<svg width="21" height="21" viewBox="0 0 21 21" fill="none" xmlns="http://www.w3.org/2000/svg">
<path d="M15.4944 3.78027H5.50515C4.55346 3.78027 3.77979 4.48548 3.77979 5.50563V15.4949C3.77979 16.5151 4.55346 17.2203 5.50515 17.2203H15.4944C16.4461 17.2203 17.2198 16.5151 17.2198 15.4949V5.50563C17.2198 4.48548 16.4461 3.78027 15.4944 3.78027ZM12.968 5.8822C12.968 5.54671 13.2419 5.27969 13.5705 5.27969H15.0905C15.426 5.27969 15.693 5.55356 15.693 5.8822V7.33369C15.693 7.66918 15.4191 7.9362 15.0905 7.9362H13.5705C13.235 7.9362 12.968 7.66233 12.968 7.33369V5.8822ZM10.5169 7.86088C12.0095 7.86088 13.2145 9.03166 13.2145 10.4763C13.2145 11.921 12.0026 13.0917 10.5169 13.0917C9.02432 13.0917 7.81931 11.921 7.81931 10.4763C7.81931 9.03166 9.02432 7.86088 10.5169 7.86088ZM15.6998 15.1457C15.6998 15.4401 15.4602 15.6798 15.1658 15.6798H5.8064C5.51199 15.6798 5.27236 15.4401 5.27236 15.1457V9.463H6.50475C6.39521 9.82588 6.33359 10.2161 6.33359 10.6132C6.33359 12.8521 8.20273 14.6596 10.5101 14.6596C12.8174 14.6596 14.6865 12.8453 14.6865 10.6132C14.6865 10.2161 14.6249 9.82588 14.5154 9.463H15.6998V15.1457Z" fill="black"/>
</svg>
