<svg width="20" height="21" viewBox="0 0 20 21" fill="none" xmlns="http://www.w3.org/2000/svg">
<path d="M16.2815 17.1028L16.2879 12.2184C16.2879 9.82683 15.7989 7.98926 13.1352 7.98926C11.8548 7.98926 10.9991 8.72564 10.6452 9.42824H10.6066V8.20544H8.08447V17.0961H10.7096V12.698C10.7096 11.536 10.9219 10.4146 12.2859 10.4146C13.6306 10.4146 13.6564 11.7387 13.6564 12.7724V17.1028H16.2815Z" fill="black"/>
<path d="M6.44404 8.20508H3.8125V17.0957H6.44404V8.20508Z" fill="black"/>
<path d="M5.12497 3.78027C4.28211 3.78027 3.6001 4.49639 3.6001 5.38139C3.6001 6.2664 4.28211 6.99603 5.12497 6.99603C5.96783 6.99603 6.64984 6.2664 6.64984 5.38139C6.64984 4.49639 5.96783 3.78027 5.12497 3.78027Z" fill="black"/>
</svg>
