<svg width="21" height="21" viewBox="0 0 21 21" fill="none" xmlns="http://www.w3.org/2000/svg">
<path d="M16.8452 7.02918L16.8533 7.45154C16.8533 11.7888 13.5593 16.8003 7.53787 16.8003C5.6926 16.8003 3.96872 16.2561 2.52002 15.3139C2.77091 15.3464 3.0299 15.3626 3.29698 15.3626C4.8347 15.3626 6.24294 14.8347 7.35982 13.9494C5.9273 13.925 4.7214 12.9747 4.30054 11.667C4.50288 11.7076 4.70521 11.7239 4.91564 11.7239C5.21509 11.7239 5.50645 11.6832 5.77353 11.6101C4.27626 11.3096 3.1513 9.98569 3.1513 8.39372V8.36123C3.58834 8.6049 4.09012 8.7511 4.63237 8.76735C3.75829 8.18254 3.18367 7.16726 3.18367 6.03826C3.18367 5.43722 3.34554 4.86866 3.6288 4.38132C5.23128 6.37128 7.65118 7.67084 10.3705 7.80892C10.3139 7.57337 10.2896 7.32158 10.2896 7.06167C10.2896 5.2504 11.7464 3.78027 13.5593 3.78027C14.4981 3.78027 15.356 4.17826 15.9549 4.8118C16.6914 4.6656 17.3955 4.39757 18.0349 4.02394C17.7921 4.78744 17.2741 5.43722 16.5943 5.84333C17.2579 5.76211 17.8892 5.58342 18.48 5.32351C18.0349 5.98141 17.4765 6.56621 16.8452 7.02918Z" fill="black"/>
</svg>
